<svg viewBox="0 0 240 280" xmlns="http://www.w3.org/2000/svg" role="img" aria-label="Otis the otter mascot">
  <defs>
    <linearGradient id="otis-body" x1="0%" y1="0%" x2="100%" y2="100%">
      <stop offset="0%" stop-color="#a855f7"/>
      <stop offset="50%" stop-color="#8b5cf6"/>
      <stop offset="100%" stop-color="#06b6d4"/>
    </linearGradient>
    <radialGradient id="otis-belly" cx="50%" cy="40%" r="60%">
      <stop offset="0%" stop-color="#fef9c3"/>
      <stop offset="100%" stop-color="#fde68a"/>
    </radialGradient>
    <radialGradient id="otis-cheek" cx="50%" cy="50%" r="50%">
      <stop offset="0%" stop-color="#f0abfc" stop-opacity="0.7"/>
      <stop offset="100%" stop-color="#f0abfc" stop-opacity="0"/>
    </radialGradient>
    <linearGradient id="otis-band" x1="0%" y1="0%" x2="100%" y2="0%">
      <stop offset="0%" stop-color="#ec4899"/>
      <stop offset="100%" stop-color="#06b6d4"/>
    </linearGradient>
  </defs>

  <ellipse cx="120" cy="262" rx="58" ry="8" fill="#000" opacity="0.3"/>

  <rect x="50" y="55" width="140" height="200" rx="70" fill="url(#otis-body)"/>

  <ellipse cx="72" cy="62" rx="16" ry="22" fill="#a855f7"/>
  <ellipse cx="168" cy="62" rx="16" ry="22" fill="#06b6d4"/>
  <ellipse cx="72" cy="68" rx="8" ry="13" fill="#fce7f3"/>
  <ellipse cx="168" cy="68" rx="8" ry="13" fill="#fce7f3"/>

  <ellipse cx="120" cy="195" rx="48" ry="55" fill="url(#otis-belly)"/>
  <ellipse cx="120" cy="130" rx="55" ry="50" fill="url(#otis-belly)"/>

  <circle cx="78" cy="142" r="12" fill="url(#otis-cheek)"/>
  <circle cx="162" cy="142" r="12" fill="url(#otis-cheek)"/>

  <ellipse cx="98" cy="120" rx="9" ry="11" fill="#1f1233"/>
  <ellipse cx="142" cy="120" rx="9" ry="11" fill="#1f1233"/>
  <circle cx="102" cy="115" r="3.5" fill="#ffffff"/>
  <circle cx="146" cy="115" r="3.5" fill="#ffffff"/>
  <circle cx="95" cy="125" r="1.5" fill="#ffffff"/>
  <circle cx="139" cy="125" r="1.5" fill="#ffffff"/>

  <path d="M 120 142 Q 112 150, 120 156 Q 128 150, 120 142 Z" fill="#ec4899"/>

  <path d="M 120 156 Q 113 165, 107 161" stroke="#1f1233" stroke-width="2.5" fill="none" stroke-linecap="round"/>
  <path d="M 120 156 Q 127 165, 133 161" stroke="#1f1233" stroke-width="2.5" fill="none" stroke-linecap="round"/>

  <line x1="65" y1="140" x2="86" y2="138" stroke="#1f1233" stroke-width="1.5" stroke-linecap="round" opacity="0.6"/>
  <line x1="65" y1="150" x2="86" y2="148" stroke="#1f1233" stroke-width="1.5" stroke-linecap="round" opacity="0.6"/>
  <line x1="154" y1="138" x2="175" y2="140" stroke="#1f1233" stroke-width="1.5" stroke-linecap="round" opacity="0.6"/>
  <line x1="154" y1="148" x2="175" y2="150" stroke="#1f1233" stroke-width="1.5" stroke-linecap="round" opacity="0.6"/>

  <path d="M 60 75 Q 120 25, 180 75" stroke="#1f1233" stroke-width="9" fill="none" stroke-linecap="round"/>
  <path d="M 60 75 Q 120 28, 180 75" stroke="url(#otis-band)" stroke-width="5" fill="none" stroke-linecap="round" opacity="0.85"/>

  <ellipse cx="58" cy="98" rx="18" ry="22" fill="#1f1233"/>
  <ellipse cx="182" cy="98" rx="18" ry="22" fill="#1f1233"/>
  <ellipse cx="58" cy="98" rx="11" ry="15" fill="#a855f7"/>
  <ellipse cx="182" cy="98" rx="11" ry="15" fill="#06b6d4"/>
  <ellipse cx="55" cy="91" rx="3" ry="5" fill="#fce7f3" opacity="0.7"/>
  <ellipse cx="179" cy="91" rx="3" ry="5" fill="#fce7f3" opacity="0.7"/>

  <ellipse cx="78" cy="215" rx="15" ry="11" fill="url(#otis-body)"/>
  <ellipse cx="162" cy="215" rx="15" ry="11" fill="url(#otis-body)"/>

  <rect x="88" y="192" width="64" height="50" rx="5" fill="#1f1233"/>
  <rect x="91" y="195" width="58" height="44" rx="3" fill="#fef9c3"/>
  <rect x="106" y="187" width="28" height="10" rx="3" fill="#1f1233"/>
  <rect x="111" y="184" width="18" height="7" rx="2" fill="#a855f7"/>
  <line x1="98" y1="210" x2="142" y2="210" stroke="#a855f7" stroke-width="2" opacity="0.5" stroke-linecap="round"/>
  <line x1="98" y1="220" x2="142" y2="220" stroke="#a855f7" stroke-width="2" opacity="0.5" stroke-linecap="round"/>
  <line x1="98" y1="230" x2="135" y2="230" stroke="#a855f7" stroke-width="2" opacity="0.5" stroke-linecap="round"/>
  <path d="M 137 215 L 142 222 L 152 208" stroke="#10b981" stroke-width="3" fill="none" stroke-linecap="round" stroke-linejoin="round"/>
</svg>
